<svg xmlns="http://www.w3.org/2000/svg" xmlns:xlink="http://www.w3.org/1999/xlink" width="1000" zoomAndPan="magnify" viewBox="0 0 750 749.999995" height="1000" preserveAspectRatio="xMidYMid meet" version="1.0"><defs><filter x="0%" y="0%" width="100%" height="100%" id="7ac5253847"><feColorMatrix values="0 0 0 0 1 0 0 0 0 1 0 0 0 0 1 0 0 0 1 0" color-interpolation-filters="sRGB"/></filter><g/><clipPath id="bc1fa85cb3"><path d="M 54.445312 199.152344 L 410 199.152344 L 410 549 L 54.445312 549 Z M 54.445312 199.152344 " clip-rule="nonzero"/></clipPath><mask id="b4c07be7c3"><g filter="url(#7ac5253847)"><rect x="-75" width="900" fill="#000000" y="-74.999999" height="899.999994" fill-opacity="0.698"/></g></mask><clipPath id="80c1b7d068"><path d="M 0.445312 1 L 355.921875 1 L 355.921875 349.878906 L 0.445312 349.878906 Z M 0.445312 1 " clip-rule="nonzero"/></clipPath><clipPath id="bb178442aa"><rect x="0" width="356" y="0" height="350"/></clipPath></defs><g clip-path="url(#bc1fa85cb3)"><g mask="url(#b4c07be7c3)"><g transform="matrix(1, 0, 0, 1, 54, 199)"><g clip-path="url(#bb178442aa)"><g clip-path="url(#80c1b7d068)"><path fill="#4392a6" d="M 323.386719 227.316406 C 320.214844 234.085938 316.886719 241.011719 313.867188 247.484375 C 310.390625 254.40625 305.554688 259.824219 300.566406 264.640625 C 295.429688 269.457031 290.441406 274.121094 285.457031 279.691406 C 279.410156 286.765625 271.703125 292.335938 263.542969 296.847656 C 255.382812 301.515625 246.921875 305.429688 238.304688 309.792969 C 222.4375 317.769531 204.757812 323.339844 186.320312 325.296875 C 167.886719 327.101562 148.84375 325.597656 131.3125 319.273438 C 123.152344 316.414062 115.296875 312.953125 107.738281 309.039062 C 100.335938 304.976562 93.234375 300.613281 86.582031 295.644531 C 79.933594 290.828125 73.738281 285.261719 67.996094 279.542969 C 62.253906 273.820312 56.964844 267.652344 52.429688 261.179688 C 47.746094 254.707031 43.515625 247.933594 40.039062 240.710938 C 36.5625 233.636719 33.539062 226.261719 31.121094 218.734375 C 28.855469 211.210938 27.195312 203.382812 26.136719 195.707031 C 25.078125 187.882812 24.925781 179.90625 25.078125 172.078125 C 25.832031 153.714844 29.761719 134.601562 37.015625 116.691406 C 44.117188 98.933594 54.546875 82.375 66.636719 68.226562 C 71.019531 63.109375 77.214844 57.089844 84.46875 51.222656 C 91.722656 45.351562 100.335938 39.933594 109.25 35.265625 C 127.082031 25.785156 145.972656 20.515625 157.457031 16.753906 C 141.742188 19.613281 126.175781 24.429688 111.214844 31.054688 C 103.8125 34.363281 96.707031 38.277344 89.757812 42.640625 C 82.957031 47.007812 76.308594 51.671875 70.414062 56.941406 C 94.894531 32.105469 129.046875 15.703125 164.710938 12.390625 C 182.542969 10.585938 200.679688 11.789062 218.207031 15.851562 C 235.738281 19.765625 252.359375 26.839844 267.625 36.019531 C 239.363281 18.261719 206.269531 9.53125 173.476562 10.585938 C 140.683594 11.488281 108.496094 22.023438 81.746094 40.835938 C 55 59.648438 33.691406 86.140625 21.148438 116.691406 C 8.605469 147.246094 4.828125 181.710938 10.417969 215.125 C 5.582031 196.007812 4.222656 175.539062 6.488281 155.070312 C 8.605469 134.601562 14.800781 114.285156 24.625 95.46875 C 34.296875 76.808594 47.746094 59.800781 63.765625 45.804688 C 79.78125 31.804688 98.371094 20.820312 118.316406 13.746094 C 138.265625 6.519531 159.269531 3.210938 180.125 3.660156 C 200.980469 4.113281 221.53125 8.175781 240.421875 15.550781 C 259.3125 22.925781 276.691406 33.460938 291.800781 46.105469 C 306.914062 58.746094 319.910156 73.496094 330.1875 89.601562 C 336.535156 99.234375 342.730469 110.820312 347.113281 119.851562 C 339.554688 101.941406 329.128906 84.785156 316.585938 69.433594 C 303.890625 54.082031 288.628906 40.535156 271.550781 29.546875 C 254.175781 18.863281 234.980469 10.734375 214.582031 6.070312 C 194.332031 1.402344 173.023438 0.347656 152.019531 2.90625 C 131.011719 5.617188 110.460938 12.238281 91.570312 22.324219 C 72.832031 32.40625 55.753906 46.253906 41.851562 62.507812 C 28.25 78.765625 17.371094 97.578125 10.417969 117.59375 C 6.945312 127.527344 4.375 137.761719 2.710938 148.148438 C 1.050781 158.382812 0.445312 168.765625 0.746094 179.003906 C 1.050781 197.816406 4.828125 216.78125 11.324219 234.691406 C 18.125 252.601562 27.648438 269.757812 40.191406 284.808594 C 64.820312 315.210938 100.789062 337.183594 140.230469 345.164062 C 161.539062 349.980469 183.902344 350.882812 205.664062 347.871094 C 228.03125 344.710938 249.941406 337.183594 269.738281 325.898438 C 289.535156 314.609375 306.914062 299.558594 320.816406 281.796875 C 327.011719 273.972656 333.8125 264.039062 339.40625 252.902344 C 345.148438 241.765625 349.679688 229.421875 352.402344 217.53125 C 355.121094 205.640625 356.027344 194.203125 355.273438 184.871094 C 355.121094 182.613281 354.820312 180.355469 354.515625 178.398438 C 354.214844 176.445312 353.914062 174.488281 353.308594 172.832031 C 352.25 169.519531 351.042969 166.8125 349.679688 165.15625 C 349.53125 168.164062 349.53125 171.175781 349.378906 174.335938 C 349.226562 177.347656 349.078125 180.507812 348.925781 183.667969 C 348.625 186.828125 348.320312 189.839844 347.867188 192.847656 C 347.261719 195.859375 346.808594 198.71875 346.054688 201.578125 C 346.054688 199.320312 345.902344 196.914062 345.753906 194.503906 C 345.753906 193.300781 345.601562 192.097656 345.601562 190.742188 C 345.601562 189.539062 345.449219 188.183594 345.449219 186.980469 C 345.296875 188.183594 345.148438 189.386719 344.996094 190.589844 C 344.84375 191.796875 344.542969 193 344.242188 194.203125 C 343.789062 196.613281 343.484375 199.019531 343.335938 201.277344 C 343.484375 199.472656 343.484375 197.515625 343.335938 195.859375 C 343.183594 194.203125 343.03125 192.847656 342.578125 192.097656 C 341.371094 197.664062 341.371094 205.941406 340.613281 210.457031 C 340.464844 211.8125 340.3125 215.574219 339.554688 219.488281 C 339.253906 221.445312 338.953125 223.402344 338.5 225.058594 C 338.046875 226.714844 337.589844 228.066406 337.136719 228.820312 C 338.648438 219.488281 340.007812 207.898438 338.800781 200.222656 C 338.046875 203.234375 337.589844 206.242188 336.382812 208.953125 C 336.382812 208.050781 336.535156 206.847656 336.535156 205.640625 C 336.683594 204.4375 336.683594 203.082031 336.835938 201.878906 C 336.988281 199.320312 337.136719 197.0625 336.535156 196.007812 C 335.171875 203.382812 334.265625 210.007812 331.699219 217.382812 C 331.09375 218.886719 330.640625 220.390625 330.1875 221.746094 C 329.582031 223.101562 329.128906 224.605469 328.523438 225.960938 C 327.464844 228.820312 326.257812 231.378906 325.351562 234.390625 C 327.617188 227.464844 330.1875 218.132812 329.882812 212.867188 C 329.128906 214.371094 328.523438 215.875 328.070312 217.53125 L 327.316406 219.941406 C 327.011719 220.691406 326.863281 221.59375 326.558594 222.347656 C 326.558594 221.898438 326.410156 221.59375 326.257812 221.445312 C 325.804688 222.800781 324.746094 224.605469 324.292969 226.109375 C 323.992188 225.960938 323.539062 226.261719 323.386719 225.808594 C 323.539062 225.960938 323.839844 226.109375 323.992188 226.109375 " fill-opacity="1" fill-rule="nonzero"/></g><path fill="#4392a6" d="M 347.714844 224.90625 C 347.113281 226.863281 346.355469 228.96875 345.449219 231.226562 C 344.542969 233.484375 343.789062 235.742188 342.730469 238 C 341.671875 240.257812 340.765625 242.515625 339.554688 244.472656 C 338.5 246.429688 337.441406 248.386719 336.382812 249.890625 " fill-opacity="1" fill-rule="nonzero"/></g></g></g></g><g fill="#000000" fill-opacity="1"><g transform="translate(182.221239, 410.310972)"><g><path d="M 54.097656 -13.808594 L 17.195312 -87.863281 L 10.292969 -87.863281 L 10.292969 0 L 18.828125 0 L 18.828125 -65.394531 L 51.460938 0 L 56.859375 0 L 89.496094 -65.394531 L 89.496094 0 L 98.03125 0 L 98.03125 -87.863281 L 91.125 -87.863281 Z M 54.097656 -13.808594 "/></g></g></g><g fill="#000000" fill-opacity="1"><g transform="translate(290.779268, 410.310972)"><g><path d="M 83.09375 -87.863281 L 51.714844 -36.527344 L 20.207031 -87.863281 L 10.292969 -87.863281 L 47.445312 -27.113281 L 47.445312 0 L 55.980469 0 L 55.980469 -27.113281 L 93.136719 -87.863281 Z M 83.09375 -87.863281 "/></g></g></g><g fill="#000000" fill-opacity="1"><g transform="translate(394.568249, 410.310972)"><g><path d="M 47.695312 -87.863281 L 10.292969 0 L 19.582031 0 L 27.238281 -17.949219 L 73.929688 -17.949219 L 81.585938 0 L 90.875 0 L 53.34375 -87.863281 Z M 30.878906 -26.484375 L 50.585938 -72.675781 L 70.164062 -26.484375 Z M 30.878906 -26.484375 "/></g></g></g><g fill="#000000" fill-opacity="1"><g transform="translate(496.098209, 410.310972)"><g><path d="M 86.480469 -63.761719 C 86.480469 -76.941406 75.6875 -87.863281 62.382812 -87.863281 L 10.292969 -87.863281 L 10.292969 0 L 18.828125 0 L 18.828125 -39.539062 L 46.441406 -39.539062 L 80.207031 0 L 91.503906 0 L 57.613281 -39.539062 L 62.382812 -39.539062 C 75.6875 -39.539062 86.480469 -50.457031 86.480469 -63.761719 Z M 18.828125 -79.203125 L 62.382812 -79.203125 C 70.917969 -79.203125 77.945312 -72.296875 77.945312 -63.761719 C 77.945312 -55.101562 70.917969 -48.199219 62.382812 -48.199219 L 18.828125 -48.199219 Z M 18.828125 -79.203125 "/></g></g></g><g fill="#000000" fill-opacity="1"><g transform="translate(598.255696, 410.310972)"><g><path d="M 44.058594 0 L 52.59375 0 L 52.59375 -79.203125 L 86.480469 -79.203125 L 86.480469 -87.863281 L 10.292969 -87.863281 L 10.292969 -79.203125 L 44.058594 -79.203125 Z M 44.058594 0 "/></g></g></g></svg>